<svg xmlns="http://www.w3.org/2000/svg" fill="none" viewBox="0 0 24 24" id="Social-Distancing-Correct-3--Streamline-Covid.svg" height="24" width="24"><desc>Social Distancing Correct 3 Streamline Icon: https://streamlinehq.com</desc><path stroke="#000000" stroke-linecap="round" stroke-linejoin="round" d="M18.5 7.538a3.375 3.375 0 1 0 0 -6.75 3.375 3.375 0 0 0 0 6.75Z" stroke-width="1.5"></path><path stroke="#000000" stroke-linecap="round" stroke-linejoin="round" d="M23.25 11.288a6.027 6.027 0 0 0 -9.5 0" stroke-width="1.5"></path><path stroke="#000000" stroke-linecap="round" stroke-linejoin="round" d="M21.875 4.275A6.78 6.78 0 0 1 20 4.538a6.73 6.73 0 0 1 -4.568 -1.78" stroke-width="1.5"></path><path stroke="#000000" stroke-linecap="round" stroke-linejoin="round" d="M5.5 19.288a3.375 3.375 0 1 0 0 -6.75 3.375 3.375 0 0 0 0 6.75Z" stroke-width="1.5"></path><path stroke="#000000" stroke-linecap="round" stroke-linejoin="round" d="M10.249 23.038a6.026 6.026 0 0 0 -9.5 0" stroke-width="1.5"></path><path stroke="#000000" stroke-linecap="round" stroke-linejoin="round" d="M8.875 16.024a6.762 6.762 0 0 1 -6.443 -1.516" stroke-width="1.5"></path><path stroke="#000000" stroke-linecap="round" stroke-linejoin="round" d="M5.271 9.962a4.5 4.5 0 1 0 0 -9 4.5 4.5 0 0 0 0 9Z" stroke-width="1.5"></path><path stroke="#000000" stroke-linecap="round" stroke-linejoin="round" d="m3.471 5.912 0.975 0.974a0.45 0.45 0 0 0 0.684 -0.056l1.941 -2.718" stroke-width="1.5"></path><path stroke="#000000" d="M12.5 19.788a0.375 0.375 0 0 1 0 -0.75" stroke-width="1.5"></path><path stroke="#000000" d="M12.5 19.788a0.375 0.375 0 0 0 0 -0.75" stroke-width="1.5"></path><path stroke="#000000" d="M15.5 16.913a0.375 0.375 0 0 1 0 -0.75" stroke-width="1.5"></path><path stroke="#000000" d="M15.5 16.913a0.375 0.375 0 0 0 0 -0.75" stroke-width="1.5"></path><g><path stroke="#000000" d="M18.5 14.038a0.375 0.375 0 0 1 0 -0.75" stroke-width="1.5"></path><path stroke="#000000" d="M18.5 14.038a0.375 0.375 0 0 0 0 -0.75" stroke-width="1.5"></path></g></svg>